USFL
nRows=271
nColumns=2
inDegrees=yes
endheader
time	tib_ant_r	
2.9605	 51.893420	
2.99376	 51.912289	
3.02702	 51.898374	
3.06029	 51.901962	
3.09355	 51.942749	
3.12682	 51.968951	
3.16008	 51.966794	
3.19334	 51.980974	
3.22661	 52.032273	
3.25987	 52.021123	
3.29314	 52.045561	
3.3264	 52.029032	
3.35966	 52.022184	
3.39293	 52.034070	
3.42619	 52.038718	
3.45946	 52.040177	
3.49272	 52.064710	
3.52598	 52.054566	
3.55925	 52.041176	
3.59251	 52.005756	
3.62578	 51.999097	
3.65904	 51.985854	
3.6923	 52.030659	
3.72557	 52.018414	
3.75883	 52.040070	
3.7921	 51.950140	
3.82536	 51.873676	
3.85862	 51.882300	
3.89189	 51.780763	
3.92515	 51.715997	
3.95842	 51.720603	
3.99168	 51.584535	
4.02494	 51.466245	
4.05821	 51.261378	
4.09147	 51.170289	
4.12474	 51.153623	
4.158	 51.028713	
4.19126	 50.992093	
4.22453	 50.884165	
4.25779	 50.802677	
4.29106	 50.621637	
4.32432	 50.640281	
4.35758	 50.368938	
4.39085	 50.149472	
4.42411	 49.861549	
4.45738	 49.672783	
4.49064	 49.447265	
4.5239	 49.351556	
4.55717	 49.130056	
4.59043	 49.001768	
4.6237	 48.925237	
4.65696	 48.953337	
4.69022	 49.125923	
4.72349	 49.047380	
4.75675	 49.238201	
4.79002	 49.218820	
4.82328	 49.261196	
4.85654	 49.328572	
4.88981	 49.147665	
4.92307	 48.961491	
4.95634	 48.850785	
4.9896	 48.863402	
5.02286	 48.856933	
5.05613	 48.813741	
5.08939	 48.764372	
5.12266	 48.560913	
5.15592	 48.469551	
5.18918	 48.182538	
5.22245	 47.885783	
5.25571	 47.866540	
5.28898	 47.728013	
5.32224	 47.540730	
5.3555	 47.477403	
5.38877	 47.314055	
5.42203	 47.118508	
5.4553	 47.097408	
5.48856	 47.157647	
5.52182	 47.123162	
5.55509	 47.181709	
5.58835	 47.159829	
5.62162	 47.184732	
5.65488	 47.370673	
5.68814	 47.599577	
5.72141	 47.677220	
5.75467	 47.759277	
5.78794	 47.836826	
5.8212	 47.918055	
5.85446	 48.258953	
5.88773	 48.330215	
5.92099	 48.462370	
5.95426	 48.529195	
5.98752	 48.566124	
6.02078	 48.585061	
6.05405	 48.509155	
6.08731	 48.504526	
6.12058	 48.449818	
6.15384	 48.327820	
6.1871	 48.371872	
6.22037	 48.300136	
6.25363	 48.252326	
6.2869	 48.281671	
6.32016	 48.329136	
6.35342	 48.301636	
6.38669	 48.346548	
6.41995	 48.457664	
6.45322	 48.396626	
6.48648	 48.468847	
6.51974	 48.569447	
6.55301	 48.549061	
6.58627	 48.599213	
6.61954	 48.635574	
6.6528	 48.693995	
6.68606	 48.758453	
6.71933	 48.808681	
6.75259	 48.916059	
6.78586	 48.990637	
6.81912	 48.923102	
6.85238	 48.920262	
6.88565	 48.906689	
6.91891	 48.792851	
6.95218	 48.692604	
6.98544	 48.663272	
7.0187	 48.590558	
7.05197	 48.515819	
7.08523	 48.478170	
7.1185	 48.446315	
7.15176	 48.404168	
7.18502	 48.386292	
7.21829	 48.432567	
7.25155	 48.458809	
7.28482	 48.497825	
7.31808	 48.530158	
7.35134	 48.518717	
7.38461	 48.558524	
7.41787	 48.642985	
7.45114	 48.640593	
7.4844	 48.687715	
7.51766	 48.755933	
7.55093	 48.765785	
7.58419	 48.782132	
7.61746	 48.839309	
7.65072	 48.834026	
7.68398	 48.863045	
7.71725	 48.847823	
7.75051	 48.886416	
7.78378	 48.942449	
7.81704	 48.921526	
7.8503	 48.927773	
7.88357	 48.899419	
7.91683	 48.914347	
7.9501	 48.926120	
7.98336	 48.905449	
8.01662	 48.929087	
8.04989	 48.887669	
8.08315	 48.911148	
8.11642	 48.920466	
8.14968	 48.898593	
8.18294	 48.927953	
8.21621	 48.943840	
8.24947	 48.944003	
8.28274	 48.914184	
8.316	 48.929346	
8.34926	 48.938257	
8.38253	 48.922202	
8.41579	 48.876364	
8.44906	 48.840127	
8.48232	 48.814125	
8.51558	 48.750755	
8.54885	 48.691150	
8.58211	 48.687742	
8.61538	 48.679710	
8.64864	 48.668265	
8.6819	 48.636571	
8.71517	 48.674373	
8.74843	 48.702185	
8.7817	 48.753029	
8.81496	 48.743364	
8.84822	 48.721970	
8.88149	 48.758500	
8.91475	 48.717825	
8.94802	 48.761743	
8.98128	 48.848621	
9.01454	 48.851169	
9.04781	 48.812816	
9.08107	 48.772113	
9.11434	 48.688466	
9.1476	 48.599328	
9.18086	 48.611540	
9.21413	 48.580998	
9.24739	 48.523136	
9.28066	 48.574774	
9.31392	 48.585988	
9.34718	 48.601680	
9.38045	 48.619414	
9.41371	 48.656728	
9.44698	 48.670351	
9.48024	 48.666337	
9.5135	 48.664231	
9.54677	 48.658117	
9.58003	 48.635947	
9.6133	 48.608144	
9.64656	 48.639696	
9.67982	 48.670725	
9.71309	 48.689016	
9.74635	 48.692726	
9.77962	 48.711700	
9.81288	 48.758152	
9.84614	 48.813411	
9.87941	 48.861712	
9.91267	 48.819581	
9.94594	 48.819559	
9.9792	 48.821206	
10.0125	 48.834804	
10.0457	 48.819616	
10.079	 48.808880	
10.1123	 48.808266	
10.1455	 48.707715	
10.1788	 48.741913	
10.212	 48.754461	
10.2453	 48.660830	
10.2786	 48.661280	
10.3118	 48.633839	
10.3451	 48.635015	
10.3784	 48.623823	
10.4116	 48.642422	
10.4449	 48.709965	
10.4782	 48.721559	
10.5114	 48.914730	
10.5447	 48.930267	
10.578	 48.939017	
10.6112	 49.001927	
10.6445	 48.992470	
10.6777	 49.002150	
10.711	 49.069544	
10.7443	 49.048757	
10.7775	 49.082529	
10.8108	 49.112762	
10.8441	 49.220204	
10.8773	 49.186994	
10.9106	 49.217217	
10.9439	 49.254400	
10.9771	 49.280653	
11.0104	 49.313890	
11.0436	 49.278931	
11.0769	 49.257925	
11.1102	 49.299676	
11.1434	 49.266988	
11.1767	 49.209990	
11.21	 49.278030	
11.2432	 49.215649	
11.2765	 49.213653	
11.3098	 49.161194	
11.343	 49.135873	
11.3763	 49.154089	
11.4096	 49.147018	
11.4428	 49.076337	
11.4761	 49.103272	
11.5093	 49.104113	
11.5426	 49.086386	
11.5759	 49.117885	
11.6091	 49.108902	
11.6424	 49.132655	
11.6757	 49.098156	
11.7089	 49.050441	
11.7422	 49.103082	
11.7755	 49.071093	
11.8087	 49.084495	
11.842	 49.088674	
11.8752	 49.074268	
11.9085	 49.076559	
11.9418	 49.200373	
